<?xml version="1.0" encoding="UTF-8" standalone="no"?>
<svg
	version="1.1"
	xmlns="http://www.w3.org/2000/svg"
	viewBox="0 0 28 26"
>
	<title>Bitbucket logo</title>
	<defs>
		<linearGradient id="bbg" x1="108.63338%" y1="13.818022%" x2="46.9265964%" y2="78.7761408%">
			<stop stop-color="#0052CC" offset="18%"/>
			<stop stop-color="#2684FF" offset="100%"/>
		</linearGradient>
	</defs>
	<g transform="translate(0,-2.5)">
		<path fill="#2684FF" d="M1.30786517,2.8365625 C1.05028746,2.83310954 0.80442388,2.94821819 0.636227202,3.1510106 C0.468030524,3.35380302 0.394717773,3.62352088 0.435955056,3.8878125 L4.13721348,27.241875 C4.23240431,27.8317963 4.72137863,28.2655134 5.29685393,28.2704687 L23.0533034,28.2704687 C23.4852414,28.276247 23.8561335,27.9524274 23.9252135,27.5092187 L27.6264719,3.89234375 C27.6677092,3.62805213 27.5943964,3.35833427 27.4261998,3.15554185 C27.2580031,2.95274944 27.0121395,2.83764079 26.7545618,2.84109375 L1.30786517,2.8365625 Z M16.8932584,19.7154687 L11.2258427,19.7154687 L9.6912809,11.3825 L18.2665169,11.3825 L16.8932584,19.7154687 Z"/>
		<path fill="url(#bbg)" d="M26.4493933,11.3825 L18.2665169,11.3825 L16.8932584,19.7154687 L11.2258427,19.7154687 L4.53393258,27.9714063 C4.74603657,28.1620371 5.01645969,28.268042 5.29685393,28.2704688 L23.0576629,28.2704688 C23.4896009,28.276247 23.860493,27.9524274 23.929573,27.5092188 L26.4493933,11.3825 Z"/>
	</g>
</svg>
