<?xml version="1.0" encoding="UTF-8" standalone="no"?>
<svg
	version="1.1"
	xmlns="http://www.w3.org/2000/svg"
	viewBox="0 0 82 72"
>
	<title>LinkedIn logo</title>
	<g transform="matrix(0.13333333,0,0,-0.13333333,0,72)">
		<path fill="#0077b5" d="M 500.027,540 H 39.8633 C 17.8594,540 0,522.559 0,501.094 V 38.9648 C 0,17.4609 17.8594,0 39.8633,0 H 500.027 c 22.024,0 40,17.4609 40,38.9648 V 501.094 c 0,21.465 -17.976,38.906 -40,38.906" />
		<g fill="#fff">
			<path d="m120.105 465.66c25.61 0 46.418-20.816 46.418-46.426 0-25.644-20.808-46.457-46.418-46.457-25.6714 0-46.4253 20.813-46.4253 46.457 0 25.61 20.7539 46.426 46.4253 46.426m-40.0659-128.109h80.1249v-257.6955h-80.1249v257.6955"/>
			<path d="m210.398 337.551h76.836v-35.207h1.094c10.695 20.254 36.828 41.625 75.793 41.625 81.047 0 96.016-53.36 96.016-122.77v-141.3435h-80v125.3125c0 29.891-0.586 68.328-41.629 68.328-41.684 0-48.039-32.551-48.039-66.172v-127.4685h-80.071v257.6955"/>
		</g>
		<g fill="#000" fill-opacity="0.4">
			<path d="m558.652 103.828h7.696v-23.9725h4.179v23.9725h7.676v4.18h-19.551v-4.18"/>
			<path d="m605.391 108.008-8.211-20.6642-8.203 20.6642h-5.957v-28.1525h4.16v21.4215l8.613-21.4215h2.781l8.614 21.4215v-21.4215h4.16v28.1525h-5.957"/>
		</g>
	</g>
</svg>
