<?xml version="1.0" encoding="UTF-8" standalone="no"?>
<svg
	version="1.1"
	xmlns="http://www.w3.org/2000/svg"
	viewBox="0 0 374.5 332.39337"
>
	<title>Open Build Service logo</title>
	<g transform="matrix(2.0000857,0,0,2.0000857,-438.1392,-540.63359)">
		<g fill="#999">
			<polygon points="352,431.495 352,351.495 352,347.686 352,275.305 360,286.733 360,351.486 398.301,371.71 401.084,412.447 " />
			<polygon points="321,298.733 314,286.908 314,355.288 321,353.887 " />
			<polygon points="283.018,309.644 276.018,298.215 276,362.891 283.018,361.486 " />
		</g>
		<polygon fill="#6d8296" points="352,347.686 352,275.305 333,286.733 333,351.486 326,352.887 317,354.688 314,355.288 314,286.733 295,298.162 295,359.09 287,360.69 278,362.49 276,362.891 276,298.162 257,309.59 257,366.692 231.738,371.71 224.06,412.447 278,420.478 334.937,428.955 352,431.495 352,375.123 352,351.495 " />
		<polygon fill="#61798f" points="295,298.162 295,359.09 276,362.891 276,298.162 257,309.59 257,366.692 231.738,371.71 224.06,412.447 352,431.495 352,351.495 352,347.686 352,275.305 333,286.733 333,351.486 314,355.288 314,286.733 " />
	</g>
</svg>
